#!OML:ASF H:\Dans Jumps\Project 1\Capture day 1\Session 1\subject.ASF
:FULLY-SPECIFIED
:DEGREES
748
root 0.75073 17.6027 -9.21224 8.40975 -4.10988 -1.54553
lowerback 4.11151 -1.18864 -3.51419
upperback 4.40529 -1.67942 0.976119
thorax 2.36682 -0.956012 3.00656
lowerneck -12.5573 -3.14713 -3.08933
upperneck 18.5489 -4.21929 2.59162
head 7.92354 -1.97375 0.923842
rclavicle -1.21259e-014 1.86858e-014
rhumerus -19.9966 -4.01058 -86.1309
rradius 28.3361
rwrist 26.0996
rhand -19.2504 -25.4774
rfingers 7.12502
rthumb 7.06343 -55.3395
lclavicle -1.21259e-014 1.86858e-014
lhumerus -16.2165 -9.47617 89.0887
lradius 21.684
lwrist 11.2435
lhand -27.6473 -5.49137
lfingers 7.12502
lthumb -1.04524 24.4858
rfemur -25.9301 -2.23388 18.3051
rtibia 26.6285
rfoot -7.59005 -0.28949
rtoes 18.8573
lfemur -23.8855 6.91088 -19.7256
ltibia 23.6788
lfoot -8.32228 6.18674
ltoes 8.90854
749
root 0.75929 17.5994 -9.24819 8.34838 -4.10269 -1.53381
lowerback 4.17281 -1.24886 -3.57348
upperback 4.40967 -1.76296 0.973455
thorax 2.34586 -0.999093 3.03989
lowerneck -12.4591 -3.29664 -3.20003
upperneck 18.036 -4.41388 2.70835
head 7.74761 -2.06567 0.96291
rclavicle 6.55989e-015 -7.55382e-015
rhumerus -20.0702 -3.94412 -86.1859
rradius 28.3819
rwrist 26.0778
rhand -19.2401 -25.4564
rfingers 7.12502
rthumb 7.07342 -55.3182
lclavicle 6.55989e-015 -7.55382e-015
lhumerus -16.1053 -9.46162 88.8919
lradius 21.6589
lwrist 11.1244
lhand -27.6417 -5.52123
lfingers 7.12502
lthumb -1.03986 24.456
rfemur -25.9479 -2.13651 18.2513
rtibia 26.55
rfoot -7.51165 -0.391531
rtoes 18.8575
lfemur -23.9707 6.9637 -19.7755
ltibia 23.7073
lfoot -8.3483 6.17646
ltoes 8.67622
750
root 0.767217 17.5962 -9.28427 8.28426 -4.0964 -1.53724
lowerback 4.23642 -1.30525 -3.61914
upperback 4.42086 -1.84128 0.978301
thorax 2.3302 -1.03954 3.07332
lowerneck -12.3425 -3.44121 -3.32965
upperneck 17.4851 -4.59898 2.83863
head 7.55783 -2.15378 1.01129
rclavicle -3.61788e-014 -7.95139e-015
rhumerus -20.1479 -3.8903 -86.2296
rradius 28.4231
rwrist 26.0672
rhand -19.2293 -25.4359
rfingers 7.12502
rthumb 7.08382 -55.2974
lclavicle -3.61788e-014 -7.95139e-015
lhumerus -15.9858 -9.39034 88.6905
lradius 21.6324
lwrist 10.9656
lhand -27.6393 -5.56378
lfingers 7.12502
lthumb -1.03756 24.4134
rfemur -25.9626 -2.01611 18.2122
rtibia 26.4698
rfoot -7.42646 -0.508138
rtoes 18.8618
lfemur -24.0565 7.00745 -19.8057
ltibia 23.7412
lfoot -8.36311 6.1699
ltoes 8.48071
751
root 0.77456 17.593 -9.32031 8.21812 -4.08926 -1.5489
lowerback 4.301 -1.35896 -3.65716
upperback 4.43498 -1.91597 0.987795
thorax 2.31677 -1.07813 3.10728
lowerneck -12.2103 -3.57988 -3.46862
upperneck 16.9116 -4.77387 2.97314
head 7.35947 -2.23785 1.06429
rclavicle 9.24349e-015 -4.77083e-015
rhumerus -20.2335 -3.8488 -86.2645
rradius 28.4558
rwrist 26.0629
rhand -19.2186 -25.4168
rfingers 7.12502
rthumb 7.09417 -55.2779
lclavicle 9.24349e-015 -4.77083e-015
lhumerus -15.8651 -9.25723 88.4848
lradius 21.6055
lwrist 10.7754
lhand -27.6453 -5.58691
lfingers 7.12502
lthumb -1.04329 24.3903
rfemur -25.9718 -1.87972 18.1804
rtibia 26.3828
rfoot -7.33633 -0.633091
rtoes 18.8645
lfemur -24.1424 7.03776 -19.8235
ltibia 23.7796
lfoot -8.37157 6.16747
ltoes 8.31368
752
root 0.781336 17.59 -9.3563 8.14977 -4.08553 -1.57481
lowerback 4.36577 -1.40885 -3.68285
upperback 4.4526 -1.98539 1.00273
thorax 2.30626 -1.11396 3.1399
lowerneck -12.0679 -3.716 -3.60548
upperneck 16.321 -4.94443 3.10623
head 7.15515 -2.32034 1.1175
rclavicle -2.11706e-014 2.14687e-014
rhumerus -20.3267 -3.81888 -86.2921
rradius 28.4812
rwrist 26.0616
rhand -19.2116 -25.3947
rfingers 7.12502
rthumb 7.10089 -55.2555
lclavicle -2.11706e-014 2.14687e-014
lhumerus -15.7415 -9.06493 88.2744
lradius 21.5731
lwrist 10.5656
lhand -27.6584 -5.60623
lfingers 7.12502
lthumb -1.05603 24.3709
rfemur -25.9737 -1.72633 18.1625
rtibia 26.2859
rfoot -7.24551 -0.761446
rtoes 18.8619
lfemur -24.2255 7.05538 -19.8212
ltibia 23.82
lfoot -8.38269 6.17281
ltoes 8.17297
753
root 0.787608 17.5871 -9.39225 8.08297 -4.0825 -1.61148
lowerback 4.42685 -1.45501 -3.69617
upperback 4.47142 -2.04945 1.02057
thorax 2.29833 -1.1469 3.16845
lowerneck -11.9181 -3.85871 -3.7244
upperneck 15.7207 -5.12472 3.22869
head 6.94763 -2.4078 1.16392
rclavicle 6.75868e-015 -2.98177e-014
rhumerus -20.4272 -3.80349 -86.3132
rradius 28.4969
rwrist 26.0642
rhand -19.2052 -25.383
rfingers 7.12502
rthumb 7.10711 -55.2436
lclavicle 6.75868e-015 -2.98177e-014
lhumerus -15.6145 -8.82411 88.0605
lradius 21.5311
lwrist 10.3445
lhand -27.6868 -5.64764
lfingers 7.12502
lthumb -1.08341 24.3294
rfemur -25.9704 -1.56318 18.1555
rtibia 26.178
rfoot -7.16232 -0.890476
rtoes 18.8345
lfemur -24.3079 7.05838 -19.8032
ltibia 23.8591
lfoot -8.40456 6.18616
ltoes 8.04261
754
root 0.793409 17.5846 -9.42788 8.01649 -4.07792 -1.64781
lowerback 4.48118 -1.49871 -3.7068
upperback 4.49111 -2.10991 1.03777
thorax 2.29472 -1.17805 3.1946
lowerneck -11.747 -4.01325 -3.8271
upperneck 15.1023 -5.32283 3.34683
head 6.73229 -2.50399 1.20554
rclavicle -3.81667e-014 7.95139e-016
rhumerus -20.5342 -3.80219 -86.33
rradius 28.4992
rwrist 26.0689
rhand -19.2033 -25.3852
rfingers 7.12502
rthumb 7.10893 -55.2458
lclavicle -3.81667e-014 7.95139e-016
lhumerus -15.4915 -8.53858 87.8444
lradius 21.4843
lwrist 10.1268
lhand -27.7222 -5.67065
lfingers 7.12502
lthumb -1.1176 24.3062
rfemur -25.9599 -1.40297 18.1493
rtibia 26.0599
rfoot -7.09777 -1.01335
rtoes 18.7625
lfemur -24.3844 7.04226 -19.7809
ltibia 23.8936
lfoot -8.44593 6.20974
ltoes 7.92726
755
root 0.798791 17.5825 -9.46308 7.95097 -4.07877 -1.68663
lowerback 4.52353 -1.53695 -3.71222
upperback 4.5138 -2.16251 1.05493
thorax 2.30008 -1.20537 3.21727
lowerneck -11.5608 -4.18167 -3.90972
upperneck 14.4702 -5.54149 3.45741
head 6.51157 -2.61033 1.24054
rclavicle -9.74045e-015 7.55382e-015
rhumerus -20.6385 -3.82236 -86.341
rradius 28.4817
rwrist 26.0817
rhand -19.2122 -25.3954
rfingers 7.12502
rthumb 7.10036 -55.2563
lclavicle -9.74045e-015 7.55382e-015
lhumerus -15.3655 -8.21453 87.6282
lradius 21.4225
lwrist 9.91446
lhand -27.7785 -5.72916
lfingers 7.12502
lthumb -1.17203 24.2474
rfemur -25.9439 -1.24376 18.1474
rtibia 25.936
rfoot -7.06104 -1.12698
rtoes 18.6339
lfemur -24.4519 7.01166 -19.7507
ltibia 23.9191
lfoot -8.51116 6.24598
ltoes 7.82579
756
root 0.803632 17.581 -9.4979 7.88969 -4.08299 -1.72051
lowerback 4.55567 -1.57115 -3.72095
upperback 4.53442 -2.20949 1.07154
thorax 2.30869 -1.22999 3.24086
lowerneck -11.3502 -4.35879 -3.97609
upperneck 13.8236 -5.77294 3.55927
head 6.28342 -2.72366 1.27035
rclavicle -1.39149e-014 1.86858e-014
rhumerus -20.7463 -3.86097 -86.3441
rradius 28.4448
rwrist 26.1084
rhand -19.226 -25.4147
rfingers 7.12502
rthumb 7.087 -55.2761
lclavicle -1.39149e-014 1.86858e-014
lhumerus -15.2476 -7.8452 87.4153
lradius 21.3576
lwrist 9.70972
lhand -27.8482 -5.77212
lfingers 7.12502
lthumb -1.23927 24.204
rfemur -25.9288 -1.09087 18.1431
rtibia 25.8105
rfoot -7.06226 -1.23279
rtoes 18.4352
lfemur -24.5126 6.96909 -19.7216
ltibia 23.9305
lfoot -8.59556 6.29089
ltoes 7.74783
757
root 0.807815 17.5798 -9.53231 7.83385 -4.09368 -1.74546
lowerback 4.57677 -1.59989 -3.73849
upperback 4.55065 -2.24909 1.08713
thorax 2.31868 -1.2511 3.26795
lowerneck -11.1118 -4.53953 -4.04073
upperneck 13.1658 -6.00978 3.66437
head 6.04884 -2.84036 1.30207
rclavicle 1.59028e-014 -7.55382e-015
rhumerus -20.8574 -3.91578 -86.3377
rradius 28.3854
rwrist 26.1519
rhand -19.2336 -25.4515
rfingers 7.12502
rthumb 7.07966 -55.3131
lclavicle 1.59028e-014 -7.55382e-015
lhumerus -15.1408 -7.43049 87.2075
lradius 21.2852
lwrist 9.50779
lhand -27.9279 -5.82579
lfingers 7.12502
lthumb -1.31627 24.1499
rfemur -25.9188 -0.943829 18.1329
rtibia 25.6883
rfoot -7.1083 -1.32871
rtoes 18.1669
lfemur -24.5676 6.92308 -19.6991
ltibia 23.9248
lfoot -8.69244 6.34093
ltoes 7.71448
